HIERARCHY
ROOT hip
{
	OFFSET 0.00000 0.00000 0.00000
	CHANNELS 6 Xposition Yposition Zposition Zrotation Yrotation Xrotation 
	JOINT rightuplegdummy
	{
		OFFSET 0 0 0
		CHANNELS 3 Zrotation Yrotation Xrotation
		JOINT rightupleg
		{
			OFFSET -3.52197 -3.41223 0.04002
			CHANNELS 3 Zrotation Yrotation Xrotation
			JOINT rightleg
			{
				OFFSET 0.00006 -17.42390 1.60435
				CHANNELS 3 Zrotation Yrotation Xrotation
				JOINT rightfoot
				{
					OFFSET 0.06153 -16.50078 -1.63901
					CHANNELS 3 Zrotation Yrotation Xrotation
					JOINT righttoes
					{
						OFFSET 0.00298 -1.73825 3.34613
						CHANNELS 3 Zrotation Yrotation Xrotation
						End Site
						{
							OFFSET 0.00480 -0.05416 3.85043
						}
					}
				}
			}
		}
	}
	JOINT spinedummy
	{
		OFFSET 0 0 0
		CHANNELS 3 Zrotation Yrotation Xrotation
		JOINT spine
		{
			OFFSET 0.00000 4.68130 0.00000
			CHANNELS 3 Zrotation Yrotation Xrotation
			JOINT spine1
			{
				OFFSET -0.00000 10.10138 0.05002
				CHANNELS 3 Zrotation Yrotation Xrotation
				JOINT headdummy
				{
					OFFSET 0 0 0
					CHANNELS 3 Zrotation Yrotation Xrotation
					JOINT head
					{
						OFFSET -0.00000 3.43865 0.00438
						CHANNELS 3 Zrotation Yrotation Xrotation
						End Site
						{
							OFFSET -0.11417 5.02924 0.98962
						}
					}
				}
				JOINT leftshoulder1dummy
				{
					OFFSET 0 0 0
					CHANNELS 3 Zrotation Yrotation Xrotation
					JOINT leftshoulder1
					{
						OFFSET 3.53937 -0.14262 -0.08662
						CHANNELS 3 Zrotation Yrotation Xrotation
						JOINT leftarm
						{
							OFFSET 4.04833 -0.00133 0.12681
							CHANNELS 3 Zrotation Yrotation Xrotation
							JOINT leftforearm
							{
								OFFSET 10.33880 -0.01036 -0.55515
								CHANNELS 3 Zrotation Yrotation Xrotation
								JOINT lefthand
								{
									OFFSET 8.69677 0.07543 0.40060
									CHANNELS 3 Zrotation Yrotation Xrotation
									End Site
									{
										OFFSET 5.28377 -0.21905 0.59205
									}
								}
							}
						}
					}
				}
				JOINT rightshoulderdummy
				{
					OFFSET 0 0 0
					CHANNELS 3 Zrotation Yrotation Xrotation
					JOINT rightshoulder
					{
						OFFSET -3.53937 -0.14262 -0.08660
						CHANNELS 3 Zrotation Yrotation Xrotation
						JOINT rightarm
						{
							OFFSET -4.04833 -0.00133 0.12683
							CHANNELS 3 Zrotation Yrotation Xrotation
							JOINT rightforearm
							{
								OFFSET -10.37987 -0.01039 -0.55511
								CHANNELS 3 Zrotation Yrotation Xrotation
								JOINT righthand
								{
									OFFSET -8.67398 0.07538 0.40058
									CHANNELS 3 Zrotation Yrotation Xrotation
									End Site
									{
										OFFSET -5.24810 -0.21916 0.59204
									}
								}
							}
						}
					}
				}
			}
		}
	}
	JOINT leftuplegdummy
	{
		OFFSET 0 0 0
		CHANNELS 3 Zrotation Yrotation Xrotation
		JOINT leftupleg
		{
			OFFSET 3.52197 -3.41223 0.04002
			CHANNELS 3 Zrotation Yrotation Xrotation
			JOINT leftleg
			{
				OFFSET -0.00012 -17.42399 1.60337
				CHANNELS 3 Zrotation Yrotation Xrotation
				JOINT leftfoot
				{
					OFFSET -0.09972 -16.50070 -1.63802
					CHANNELS 3 Zrotation Yrotation Xrotation
					JOINT lefttoes
					{
						OFFSET -0.01575 -1.73823 3.34611
						CHANNELS 3 Zrotation Yrotation Xrotation
						End Site
						{
							OFFSET 0.03150 -0.01868 3.85031
						}
					}
				}
			}
		}
	}
}
MOTION
Frames: 15
Frame Time: 0.033333
10.4108 38.8108 14.5225 -1.5097 -63.0533 3.4441 0.0000 -0.0000 0.0000 -5.0961 -0.9163 -7.2754 -6.2123 -10.7709 23.6742 4.3435 0.1373 -16.5809 0.0000 0.0000 0.0000 0.0000 -0.0000 0.0000 10.7618 1.1540 -0.7288 -5.1905 2.5919 13.9297 -0.0000 -0.0000 -0.0000 -26.3985 54.7855 -29.7544 -0.0000 -0.0000 -0.0000 -37.3379 -12.5207 6.9571 -29.4384 6.6099 -6.5979 172.9209 -84.5008 -149.0014 7.5432 -2.1932 -0.4729 -0.0000 -0.0000 -0.0000 33.2977 6.6852 4.0036 38.8834 -12.4351 6.8810 -19.1993 87.3330 9.3011 4.4946 7.1983 0.5522 0.0000 -0.0000 0.0000 14.3402 2.7680 -12.9098 2.4767 4.9678 17.5993 -18.1956 1.5016 -2.0475 0.0000 0.0000 0.0000
10.3480 38.7905 14.4553 -1.7074 -63.8732 3.4861 0.0000 -0.0000 0.0000 -4.9294 -0.6366 -7.4241 -6.1080 -10.4351 24.0042 4.0910 0.1278 -16.6456 0.0000 0.0000 0.0000 0.0000 -0.0000 0.0000 10.7376 0.4533 1.3579 -4.7710 1.8562 12.2211 -0.0000 -0.0000 -0.0000 -27.7124 54.5008 -30.9266 -0.0000 -0.0000 -0.0000 -37.2283 -12.4851 6.9236 -29.4631 5.7441 -6.5694 173.0511 -84.3215 -148.9373 7.7744 -2.3618 -0.4979 -0.0000 -0.0000 -0.0000 33.1690 6.6998 3.9961 37.4340 -13.8679 5.9181 -16.2345 86.9817 11.5385 3.0093 6.5880 0.3688 0.0000 -0.0000 0.0000 14.3120 5.4226 -15.4922 2.7009 4.3778 22.7633 -18.6371 1.7954 -0.4356 0.0000 0.0000 0.0000
10.2752 38.7930 14.4942 -1.2132 -64.3799 2.9360 0.0000 -0.0000 0.0000 -5.2684 -1.0166 -7.3172 -5.6711 -9.6418 24.0146 4.1594 0.1349 -16.7661 0.0000 0.0000 0.0000 0.0000 -0.0000 0.0000 10.1663 0.2388 3.3538 -4.0694 1.5456 10.5199 -0.0000 -0.0000 -0.0000 -28.5121 53.5353 -31.8926 -0.0000 -0.0000 -0.0000 -37.0749 -12.4644 6.8893 -29.7945 4.6374 -5.5415 172.9465 -84.2651 -148.4591 7.3913 -2.5060 -0.4803 -0.0000 -0.0000 -0.0000 33.0567 6.6763 3.9754 35.8780 -15.5902 4.6077 -13.3141 86.5338 13.4539 2.2608 6.4092 0.2861 0.0000 -0.0000 0.0000 13.3679 9.4584 -18.0288 3.1561 4.3942 26.9311 -18.9782 2.1853 1.7573 0.0000 0.0000 0.0000
10.1657 38.8215 14.6562 -0.4533 -64.5444 2.3457 0.0000 -0.0000 0.0000 -5.8543 -1.5161 -7.0373 -5.3142 -9.1390 23.6476 4.4444 0.1469 -16.7202 0.0000 0.0000 0.0000 0.0000 -0.0000 0.0000 9.7938 0.2529 4.6595 -4.0020 1.5679 9.1785 -0.0000 -0.0000 -0.0000 -28.8897 52.5180 -32.4128 -0.0000 -0.0000 -0.0000 -36.9761 -12.4712 6.8759 -30.1073 3.9462 -4.3952 172.7721 -83.9854 -147.1356 6.5814 -2.6909 -0.4342 -0.0000 -0.0000 -0.0000 32.8691 6.6625 3.9509 34.5764 -16.9499 3.3916 -10.9176 86.1173 14.4723 2.2874 6.1051 0.2803 0.0000 -0.0000 0.0000 11.7984 14.1181 -20.0441 4.0095 5.3660 28.6768 -18.7037 2.2561 2.3971 0.0000 0.0000 0.0000
10.0182 38.8712 14.9449 0.0005 -64.1604 2.1211 0.0000 -0.0000 0.0000 -6.3672 -1.8915 -6.3841 -5.3143 -9.4257 22.9153 4.3189 0.1284 -16.3542 0.0000 0.0000 0.0000 0.0000 -0.0000 0.0000 9.8008 0.2413 5.3802 -4.5069 1.6437 8.1120 -0.0000 -0.0000 -0.0000 -28.7971 51.5780 -32.4131 -0.0000 -0.0000 -0.0000 -36.9811 -12.5136 6.8951 -30.2429 4.0408 -3.6963 172.6434 -83.7363 -146.0372 5.8164 -2.9644 -0.3923 -0.0000 -0.0000 -0.0000 32.5296 6.6796 3.9229 33.6730 -17.2376 3.3527 -8.4499 85.3114 15.9532 1.2912 5.4910 0.1692 0.0000 -0.0000 0.0000 10.0722 18.3824 -21.5239 4.9636 7.0586 27.6471 -17.3627 2.0066 1.8261 0.0000 0.0000 0.0000
9.8541 38.8615 15.3717 -0.0715 -63.2296 2.3147 0.0000 -0.0000 0.0000 -6.8152 -2.6606 -5.4388 -5.2374 -9.5431 22.2596 4.9998 0.1600 -16.3944 0.0000 0.0000 0.0000 0.0000 -0.0000 0.0000 9.9742 0.3529 5.8569 -4.8604 1.7907 7.1634 -0.0000 -0.0000 -0.0000 -28.2978 50.2773 -32.1203 -0.0000 -0.0000 -0.0000 -36.9658 -12.5640 6.9142 -30.2344 4.5113 -3.1967 172.0350 -84.2138 -145.4149 5.3692 -3.3871 -0.3762 -0.0000 -0.0000 -0.0000 32.0484 6.6703 3.8705 33.2340 -15.9906 4.7997 -6.8648 84.2647 17.4677 -0.2031 5.1710 0.0263 0.0000 -0.0000 0.0000 8.2632 22.2360 -22.8606 5.3788 8.6779 24.6525 -15.6691 1.7905 1.7058 0.0000 0.0000 0.0000
9.6835 38.7763 15.9257 -0.8150 -61.9484 3.3130 0.0000 -0.0000 0.0000 -7.0841 -3.9567 -4.6544 -5.1838 -9.6107 21.8435 6.1203 0.2232 -16.6717 0.0000 0.0000 0.0000 0.0000 -0.0000 0.0000 10.4576 0.6805 5.8916 -5.2724 2.1399 6.3785 -0.0000 -0.0000 -0.0000 -27.8486 48.7445 -32.0663 -0.0000 -0.0000 -0.0000 -36.7423 -12.5444 6.8689 -30.1366 5.1435 -2.9449 170.3134 -85.3614 -144.1100 5.3665 -3.6098 -0.3845 -0.0000 -0.0000 -0.0000 31.6633 6.6638 3.8290 33.1660 -12.6175 7.6944 -5.6926 83.2028 18.4110 -0.8041 5.1296 -0.0285 0.0000 -0.0000 0.0000 5.8219 26.8925 -24.6585 4.7694 9.1926 20.2425 -14.8550 1.7489 2.1256 0.0000 0.0000 0.0000
9.5236 38.6719 16.5761 -2.2291 -60.6129 5.0168 0.0000 -0.0000 0.0000 -7.0587 -5.0173 -3.8587 -5.3305 -10.1299 21.3173 6.3856 0.2292 -16.5528 0.0000 0.0000 0.0000 0.0000 -0.0000 0.0000 11.3314 1.1937 6.0198 -6.1526 2.7773 5.2913 -0.0000 -0.0000 -0.0000 -27.6307 47.3080 -32.4455 -0.0000 -0.0000 -0.0000 -36.6148 -12.5376 6.8449 -29.6981 6.3136 -3.2224 167.6850 -86.5111 -142.2584 5.6906 -3.4041 -0.4012 -0.0000 -0.0000 -0.0000 31.6497 6.7455 3.8584 33.4998 -6.6502 11.9833 -4.4081 81.6046 19.1366 -1.0949 5.1712 -0.0550 0.0000 -0.0000 0.0000 3.3071 31.8233 -26.5938 3.3238 10.8174 14.8639 -14.3910 1.7382 2.4983 0.0000 0.0000 0.0000
9.3661 38.5177 17.3308 -3.9295 -58.8741 6.6711 0.0000 -0.0000 0.0000 -6.9463 -5.9671 -2.4403 -5.3332 -10.4706 20.5744 7.8712 0.3112 -16.7468 0.0000 0.0000 0.0000 0.0000 -0.0000 0.0000 12.2297 1.9143 6.6184 -7.1192 3.6684 3.9053 -0.0000 -0.0000 -0.0000 -27.3854 45.7183 -33.0737 -0.0000 -0.0000 -0.0000 -36.9516 -12.6891 6.9660 -28.7826 7.7276 -3.6989 162.6906 -87.6807 -138.3965 6.1104 -3.2196 -0.4249 -0.0000 -0.0000 -0.0000 32.1066 6.8602 3.9487 34.4862 1.5031 16.9690 -3.7641 79.5821 20.6246 -1.7979 5.3048 -0.1200 0.0000 -0.0000 0.0000 6.2155 28.9687 -25.8476 1.6041 23.8410 10.6325 -12.4603 1.4300 1.8055 0.0000 0.0000 0.0000
9.1357 38.2848 18.2766 -6.0305 -56.2759 8.4873 0.0000 -0.0000 0.0000 -6.5379 -7.4185 -0.3425 -5.5634 -11.3932 19.6891 10.3274 0.4456 -16.9650 0.0000 0.0000 0.0000 0.0000 -0.0000 0.0000 13.3476 3.0510 6.2164 -8.0213 4.9358 3.4402 -0.0000 -0.0000 -0.0000 -26.5745 43.9515 -33.2605 -0.0000 -0.0000 -0.0000 -37.3216 -12.8745 7.1083 -27.9834 8.6727 -3.6832 138.0200 -89.0216 -114.4318 6.6806 -3.2371 -0.4681 -0.0000 -0.0000 -0.0000 32.6462 6.9029 4.0210 36.2049 10.1682 21.6588 -3.5667 77.7777 22.4810 -2.4075 5.4514 -0.1780 0.0000 -0.0000 0.0000 8.3343 26.4664 -26.1466 2.4032 37.3903 9.7306 -8.6231 0.8585 -0.0522 0.0000 0.0000 0.0000
8.7852 38.0600 19.4970 -8.4507 -53.3882 10.4800 0.0000 -0.0000 0.0000 -5.9007 -8.5589 2.3051 -6.0853 -13.2404 18.6825 11.4967 0.4103 -16.0089 0.0000 0.0000 0.0000 0.0000 -0.0000 0.0000 14.4664 4.8213 4.1709 -8.8413 6.7485 3.9774 -0.0000 -0.0000 -0.0000 -24.9043 42.7748 -32.2388 -0.0000 -0.0000 -0.0000 -37.4435 -12.9511 7.1624 -27.7585 9.8875 -3.2587 67.0543 -89.3035 -43.7667 7.2652 -3.1542 -0.5071 -0.0000 -0.0000 -0.0000 32.7624 6.9089 4.0354 38.3973 17.2675 25.6366 -2.9637 75.8524 22.4916 -2.3824 5.7024 -0.1787 0.0000 -0.0000 0.0000 5.8070 30.7872 -29.0421 5.8013 40.3977 12.7229 -3.7895 0.3709 -0.1945 0.0000 0.0000 0.0000
8.3892 37.9046 21.0054 -9.5441 -49.9544 10.9575 0.0000 -0.0000 0.0000 -6.4067 -9.8343 5.1288 -6.3751 -13.6601 19.1604 15.8318 0.3980 -14.6106 0.0000 0.0000 0.0000 0.0000 -0.0000 0.0000 14.2360 6.6624 1.8218 -9.2560 8.4820 4.2038 -0.0000 -0.0000 -0.0000 -22.8211 42.4817 -30.4330 -0.0000 -0.0000 -0.0000 -37.7082 -12.9912 7.2251 -27.6989 12.0938 -3.0064 50.5884 -89.1988 -27.7976 7.3794 -3.0720 -0.5109 -0.0000 -0.0000 -0.0000 32.6747 6.9415 4.0389 40.3416 21.2830 28.2716 -2.2935 73.8820 21.2536 -1.8567 6.0269 -0.1308 0.0000 -0.0000 0.0000 -3.0004 39.4332 -35.3805 9.2517 29.4071 16.6953 0.8856 -0.1185 2.0858 0.0000 0.0000 0.0000
8.1046 37.8670 22.7875 -8.7676 -44.4191 9.2473 0.0000 -0.0000 0.0000 -8.4023 -12.2750 6.4459 -8.6682 -14.2331 25.3634 22.9119 -0.2548 -10.5899 0.0000 0.0000 0.0000 0.0000 -0.0000 0.0000 13.2663 7.7936 0.1426 -9.6025 9.5421 3.8679 -0.0000 -0.0000 -0.0000 -20.9335 42.2291 -28.7553 -0.0000 -0.0000 -0.0000 -38.1624 -13.0716 7.3386 -27.2428 13.9149 -2.8380 24.8009 -88.5717 -2.3550 7.3150 -3.1166 -0.5087 -0.0000 -0.0000 -0.0000 32.7981 6.9506 4.0553 40.8075 21.4556 28.0279 -2.2263 72.9533 21.6842 -1.4123 6.0379 -0.0870 0.0000 -0.0000 0.0000 -5.2652 36.0660 -36.2340 12.1389 23.7165 21.3224 5.0333 -0.6564 3.1666 0.0000 0.0000 0.0000
8.0279 38.0051 24.6714 -8.1773 -37.6724 6.7527 0.0000 -0.0000 0.0000 -10.0359 -13.1419 4.2082 -14.5460 -15.0018 38.5820 20.5277 -2.4255 2.0858 0.0000 0.0000 0.0000 0.0000 -0.0000 0.0000 13.4739 8.6408 -0.3988 -10.2659 10.6266 3.6444 -0.0000 -0.0000 -0.0000 -19.3575 41.6612 -27.0469 -0.0000 -0.0000 -0.0000 -38.3807 -13.1351 7.4045 -26.8060 14.6197 -2.8382 12.8936 -87.3265 9.5007 7.6858 -3.1071 -0.5354 -0.0000 -0.0000 -0.0000 33.0947 6.9189 4.0741 39.2309 18.8095 25.3358 -2.3744 72.2159 23.0171 -1.7605 5.8767 -0.1198 0.0000 -0.0000 0.0000 -1.8335 25.2787 -31.5416 15.1582 26.0530 25.4771 7.2148 -0.8223 1.5273 0.0000 0.0000 0.0000
8.1001 38.1450 26.2244 -8.2827 -32.2088 4.0437 0.0000 -0.0000 0.0000 -10.7726 -11.3376 -1.4295 -14.9897 -9.4210 52.3205 10.4817 -2.5923 17.0442 0.0000 0.0000 0.0000 0.0000 -0.0000 0.0000 13.2302 9.5615 0.5145 -10.2704 11.8173 3.8687 -0.0000 -0.0000 -0.0000 -18.1397 41.8681 -25.2360 -0.0000 -0.0000 -0.0000 -37.9408 -12.9793 7.2597 -27.6945 15.7961 -4.4558 13.1365 -87.4898 8.6553 7.9821 -2.9762 -0.5491 -0.0000 -0.0000 -0.0000 33.3437 6.9124 4.0976 36.5165 16.2566 23.2500 -2.0259 69.0055 23.6849 -3.1353 6.3694 -0.2632 0.0000 -0.0000 0.0000 -0.6064 18.9273 -27.3556 16.9349 26.7839 27.8989 7.1276 -0.6576 -0.7427 0.0000 0.0000 0.0000
